<svg width="59" height="110" viewBox="0 0 59 110" fill="none" xmlns="http://www.w3.org/2000/svg">
<g clip-path="url(#clip0)">
<path d="M54.8467 44.8217C54.8017 44.6966 54.7478 44.575 54.6855 44.4578L48.4171 32.7517C46.8244 29.7729 45.6924 26.566 45.0601 23.2422L44.6357 12.0713C44.6401 11.9915 44.6401 11.9114 44.6357 11.8316C45.1426 10.9492 45.4118 9.94841 45.4166 8.92859C45.4166 3.84198 38.5965 0.00561523 29.5526 0.00561523C20.5086 0.00561523 13.6885 3.85911 13.6885 8.92859C13.6913 9.94733 13.9606 10.9473 14.4694 11.8273C14.4694 11.9086 14.4694 11.99 14.4694 12.0713L14.045 23.2422C13.4005 26.5708 12.2555 29.7806 10.6498 32.7603L4.31776 44.4578C4.25542 44.575 4.20152 44.6966 4.15648 44.8217C2.6889 49.0162 1.76177 53.3836 1.39789 57.8165H6.49068C6.83695 54.0347 7.63787 50.3094 8.8758 46.7228L15.0508 35.2008C16.9283 31.6975 18.2568 27.922 18.9892 24.0086C19.0097 23.8852 19.0238 23.7609 19.0317 23.6361L19.3033 16.597C25.8763 19.0483 33.1014 19.0483 39.6745 16.597L39.9461 23.6361C39.9539 23.7609 39.9681 23.8852 39.9885 24.0086C40.7191 27.9212 42.0477 31.6955 43.927 35.1965L50.102 46.7228C51.3399 50.3094 52.1408 54.0347 52.4871 57.8165H57.5799C57.2242 53.3847 56.3057 49.0173 54.8467 44.8217ZM38.2697 11.2535C36.4745 12.538 33.1769 13.2959 29.4974 13.2959C25.8178 13.2959 22.5245 12.538 20.725 11.2535C19.7786 10.5813 19.2778 9.78063 19.2778 8.93715C19.2778 6.45379 23.6746 4.57843 29.5016 4.57843C35.3286 4.57843 39.7254 6.45379 39.7254 8.93715C39.7254 9.76779 39.2246 10.5685 38.2697 11.2535ZM58.6409 86.2895H53.5481L53.9258 97.5417C53.9135 99.4898 53.1384 101.354 51.7694 102.728C50.4004 104.102 48.5486 104.874 46.6176 104.876H12.4026C10.4716 104.874 8.61981 104.102 7.25084 102.728C5.88187 101.354 5.10674 99.4898 5.09442 97.5417L5.47211 86.2895H0.379333L0.00585938 97.4218V97.5075C0.0103506 100.824 1.31832 104.004 3.64298 106.349C5.96763 108.694 9.11925 110.014 12.4068 110.018H46.6049C49.8925 110.014 53.0441 108.694 55.3687 106.349C57.6934 104.004 59.0014 100.824 59.0059 97.5075V97.4218L58.6409 86.2895Z" fill="#303030"/>
<path d="M57.7518 60.3456C57.7235 59.4893 57.674 58.6458 57.6033 57.8152H1.39585C1.32795 58.6544 1.27843 59.4979 1.24731 60.3456L0.373047 86.2753H58.6388L57.7518 60.3456ZM32.3813 66.3057C32.5302 66.1246 32.7161 65.9781 32.9263 65.8761C33.1365 65.7741 33.3661 65.7191 33.5993 65.7148C33.6832 65.7096 33.7674 65.7212 33.8468 65.7492C33.9263 65.7771 33.9994 65.8207 34.0619 65.8775C34.1209 65.9365 34.167 66.0075 34.1969 66.0857C34.2269 66.1639 34.2402 66.2477 34.2359 66.3314C34.2105 66.8055 34.0054 67.2516 33.6629 67.5774C33.5207 67.7612 33.341 67.9121 33.136 68.02C32.931 68.1278 32.7055 68.19 32.4746 68.2025C32.0502 68.2025 31.855 67.9841 31.855 67.5517C31.8654 67.0836 32.0538 66.6375 32.3813 66.3057ZM46.3864 76.2905C46.0246 76.8671 45.5598 77.3709 45.0156 77.7763C44.4662 78.2868 43.7582 78.5895 43.0125 78.6326C42.6356 78.6532 42.261 78.5624 41.9345 78.3714C41.6671 78.2001 41.4591 78.0546 41.3106 77.9432C41.1364 77.8046 40.9796 77.645 40.8438 77.468L40.4533 76.9756C40.321 76.8037 40.2018 76.622 40.0968 76.4318L39.8125 75.9352C39.7531 75.8352 39.6682 75.6768 39.5578 75.4599C39.4475 75.2372 39.3838 75.1174 39.3711 75.0917C39.2409 75.36 39.0995 75.6454 38.9467 75.948C38.7897 76.2563 38.6454 76.5474 38.5223 76.8043L38.1701 77.5365L37.9027 78.0845L37.7923 78.3158C37.7783 78.3634 37.7499 78.4055 37.7112 78.4362C37.6724 78.4669 37.6251 78.4846 37.5759 78.487L36.8884 78.3372C36.8009 78.3226 36.7177 78.289 36.6444 78.2387C36.5711 78.1884 36.5096 78.1227 36.464 78.046L36.3579 78.1017C35.6938 78.4458 34.961 78.6332 34.2147 78.6497C33.9278 78.6696 33.6401 78.6236 33.3733 78.5154C33.1065 78.4071 32.8675 78.2393 32.6741 78.0246C32.3799 77.6584 32.2037 77.2102 32.1691 76.7401C31.7636 77.2771 31.2529 77.7241 30.6688 78.0533C30.0847 78.3826 29.4397 78.5871 28.7739 78.654C28.2299 78.6651 27.7036 78.4588 27.3097 78.0803C27.123 77.9121 26.9653 77.7139 26.8428 77.4937L26.5755 77.7206C26.016 78.2457 25.2927 78.5576 24.5299 78.6026C24.472 78.6086 24.4137 78.6086 24.3558 78.6026C23.7855 78.6012 23.2368 78.3825 22.8195 77.9903C22.5366 77.6554 22.3855 77.2272 22.3951 76.7872C22.429 76.199 22.5883 75.625 22.862 75.1045C23.1562 74.4789 23.5011 73.8788 23.8933 73.3105C24.2667 72.771 24.6105 72.2872 24.9203 71.859C25.0972 71.6391 25.2548 71.4042 25.3914 71.1568C25.3914 71.1226 25.3617 71.1012 25.3065 71.1012C25.0802 71.1012 24.5836 71.4637 23.8169 72.1887C22.6142 73.3143 21.4804 74.5125 20.4217 75.7767C20.167 76.0807 19.5729 76.8514 18.6307 78.0931C18.57 78.1687 18.4918 78.2282 18.403 78.2663C18.3142 78.3043 18.2176 78.3199 18.1214 78.3115C17.8722 78.3077 17.6254 78.2614 17.3915 78.1744C17.1411 78.0845 17.0137 77.9647 17.0137 77.8191C17.0137 77.7506 17.5867 76.7315 18.7113 74.7705C19.836 72.8095 20.4089 71.7434 20.4089 71.5636C20.4089 71.3837 20.3028 71.2981 20.0906 71.2981C19.8784 71.2981 19.4413 71.615 18.7793 72.2529C17.1366 73.7897 15.7153 75.5509 14.5565 77.4851C14.4406 77.6514 14.3145 77.8101 14.1788 77.9604C13.992 78.1787 13.8689 78.2901 13.801 78.2901L13.2748 78.2644H13.0796C12.9958 78.2366 12.918 78.193 12.8504 78.1359L12.6594 77.9946C12.6366 77.9756 12.6188 77.9512 12.6077 77.9235C12.5966 77.8959 12.5925 77.8659 12.5958 77.8362C12.6083 77.7019 12.6368 77.5697 12.6806 77.4423C13.8032 74.834 15.1643 72.337 16.7464 69.9837C16.9193 69.7559 17.1628 69.5931 17.4381 69.5212C17.739 69.4184 18.0542 69.3649 18.3718 69.3628C18.5501 69.3628 18.6392 69.5055 18.6392 69.791C18.6331 69.9028 18.6042 70.0121 18.5543 70.1121C18.4353 70.3458 18.2931 70.5667 18.1299 70.7715C17.8965 71.0755 17.6249 71.4223 17.3108 71.8119C16.9968 72.2015 16.8143 72.4285 16.7718 72.4884C17.5665 71.6178 18.4612 70.8459 19.4371 70.1892C20.2307 69.6839 20.8079 69.4313 21.1601 69.4313C21.3109 69.421 21.4621 69.4436 21.6034 69.4976C21.7448 69.5515 21.8729 69.6355 21.9792 69.7439C22.1567 69.9174 22.2602 70.154 22.2678 70.4032C22.2714 70.6015 22.2543 70.7995 22.2169 70.9941C22.1812 71.1647 22.1212 71.3291 22.0386 71.4822C21.9538 71.6535 21.8816 71.7948 21.8179 71.9104C21.7297 72.076 21.6275 72.2336 21.5124 72.3814L21.2153 72.7753C21.1601 72.8481 21.0498 72.9851 20.88 73.2035C20.7103 73.4218 20.6211 73.516 20.6084 73.5374C20.8065 73.3348 21.0894 73.035 21.4572 72.6383C21.8137 72.2401 22.1193 71.9061 22.3654 71.6364C22.6116 71.3666 22.9256 71.0669 23.2991 70.7287C23.6263 70.4288 23.9753 70.154 24.3431 69.9066C25.0436 69.4382 25.8626 69.1826 26.7028 69.1701C26.9583 69.1629 27.2065 69.2566 27.3946 69.4313C27.4833 69.5088 27.5544 69.6049 27.6027 69.7128C27.6511 69.8207 27.6756 69.938 27.6747 70.0564C27.6747 70.2962 27.3818 70.8785 26.8004 71.7948C26.219 72.7111 25.6375 73.6316 25.0604 74.5565C24.4832 75.4813 24.2116 76.0636 24.2116 76.2991C24.2116 76.6331 24.271 76.83 24.3941 76.8942C24.5267 76.9556 24.6734 76.9793 24.8185 76.9627C25.0828 76.9099 25.3313 76.7956 25.5442 76.6288C25.8428 76.4319 26.1265 76.2129 26.393 75.9737C26.741 75.6568 27.0635 75.3486 27.3648 75.0446C27.7327 74.3424 28.1019 73.6887 28.4725 73.0836C28.6983 72.7507 28.8971 72.3998 29.0667 72.0346C29.0667 71.9789 28.9903 71.8719 28.846 71.7134C28.7017 71.555 28.6253 71.4351 28.6253 71.3581C28.6253 71.281 28.7739 71.084 29.0709 70.7629C29.4025 70.4096 29.7663 70.0885 30.1574 69.8038C30.4345 69.558 30.774 69.3949 31.1378 69.3328C31.2554 69.3354 31.3711 69.364 31.4767 69.4165C31.5823 69.469 31.6752 69.5442 31.7489 69.6368C31.9008 69.7826 31.9957 69.9787 32.0163 70.1892C32.0163 70.3547 31.1675 71.9247 29.4699 74.899C29.4487 74.9418 29.3892 75.036 29.2916 75.1859C29.194 75.3357 29.1219 75.4599 29.0667 75.5541L28.8757 75.9095C28.7531 76.1335 28.6807 76.382 28.6635 76.6373C28.6635 76.8857 28.829 77.0056 29.1558 77.0056C29.5252 76.9947 29.8835 76.8757 30.1871 76.663C30.5237 76.4511 30.8331 76.198 31.1081 75.9095C31.7828 75.1773 32.169 74.8134 32.2624 74.8134C32.4697 73.6197 32.8056 72.4525 33.264 71.3324C33.9163 69.6112 34.7712 67.9753 35.8104 66.4598C37.9267 63.4284 39.5465 61.9127 40.6698 61.9127C40.9993 61.9072 41.3205 62.0177 41.578 62.2253C41.7116 62.3351 41.8171 62.4756 41.8858 62.635C41.9545 62.7944 41.9842 62.9681 41.9727 63.1416C41.8836 63.8183 41.6552 64.4688 41.3021 65.0512C40.8254 65.969 40.2895 66.8544 39.6979 67.7015C39.0726 68.6064 38.3653 69.5655 37.5759 70.5788C36.3225 72.1887 35.1229 73.6345 33.977 74.9161C33.955 75.079 33.9238 75.2406 33.8836 75.3999C33.8314 75.6332 33.8044 75.8715 33.803 76.1107C33.8077 76.2364 33.8398 76.3595 33.897 76.4712C33.9542 76.5829 34.0352 76.6806 34.134 76.7572C34.3585 76.9534 34.6478 77.0573 34.9446 77.0484C35.3173 77.0337 35.6781 76.9119 35.9844 76.6973C36.3369 76.4811 36.6618 76.2223 36.952 75.9266C37.0581 75.8195 37.1557 75.7168 37.2491 75.6269C37.8772 74.3966 38.8774 72.5327 40.2496 70.035C42.6178 65.7049 43.8584 63.4741 43.9716 63.3428L44.2178 63.0517C44.2703 62.9898 44.3318 62.9364 44.4002 62.8932L44.553 62.8033L44.7483 62.7348L45.0496 62.632C45.1613 62.5902 45.2704 62.5416 45.3764 62.4865L45.614 62.3537C45.6647 62.326 45.7219 62.3127 45.7795 62.3152C45.8172 62.3166 45.8541 62.3261 45.8877 62.3431C45.9214 62.36 45.9511 62.3841 45.9748 62.4137C46.0061 62.4466 46.0306 62.4855 46.0466 62.5282C46.0626 62.5709 46.07 62.6164 46.0681 62.662V62.7391C46.0313 62.8761 45.0948 64.5888 43.2586 67.8771C41.4224 71.1654 40.4024 72.9851 40.1987 73.3362C41.0936 72.8947 41.927 72.3361 42.6772 71.6749C43.7693 70.7872 44.321 70.1992 44.3323 69.9109C44.3276 69.7895 44.3521 69.6688 44.4039 69.5592C44.4556 69.4495 44.533 69.3542 44.6294 69.2815C44.807 69.1548 45.0188 69.0861 45.2363 69.0845C45.4449 69.0811 45.6463 69.1612 45.7965 69.3071C45.8823 69.4067 45.9462 69.5233 45.9843 69.6495C46.0223 69.7756 46.0335 69.9085 46.0172 70.0393C45.9577 70.5132 45.7631 70.9594 45.457 71.3238C45.0783 71.857 44.6365 72.3416 44.1414 72.7667C43.3227 73.5226 42.3973 74.1517 41.3955 74.6335C41.9769 76.222 42.6687 77.0141 43.3987 77.0141C43.8231 76.9585 44.3111 76.6202 44.9095 76.0037C45.1302 75.781 45.3339 75.5541 45.5546 75.3272C45.7753 75.1002 45.8899 74.9589 45.9366 74.899C45.9927 74.8531 46.0639 74.8302 46.136 74.8348C46.2718 74.8348 46.3567 74.9418 46.3864 75.1516C46.4137 75.3675 46.4278 75.5848 46.4289 75.8024C46.4426 75.9678 46.4209 76.1343 46.3652 76.2905H46.3864Z" fill="#303030"/>
<path d="M40.1227 63.7582C40.1227 64.2634 39.3744 65.5907 37.8777 67.7401C36.3809 69.8895 35.2082 71.4694 34.3594 72.4799C34.7075 71.3544 35.1608 70.2648 35.7132 69.2258C36.4166 68.0234 37.1918 66.8652 38.0347 65.7577C39.1042 64.3105 39.7648 63.5869 40.0166 63.5869C40.0888 63.5955 40.1227 63.6469 40.1227 63.7582Z" fill="#303030"/>
</g>
<defs>
<clipPath id="clip0">
<rect width="59" height="110" fill="white"/>
</clipPath>
</defs>
</svg>
